<!-- filepath: /Users/esap/Desktop/Github/shortlinker/docs/public/logo.svg -->
<svg width="64" height="64" viewBox="0 0 64 64" fill="none" xmlns="http://www.w3.org/2000/svg">
  <!-- 背景圆形 -->
  <circle cx="32" cy="32" r="28" fill="url(#gradient)" stroke="url(#borderGradient)" stroke-width="2"/>
  
  <!-- 主要链接图标 -->
  <g transform="translate(16, 20)">
    <!-- 左侧链环 -->
    <path d="M8 12L8 12C5.79086 12 4 10.2091 4 8V8C4 5.79086 5.79086 4 8 4H12C14.2091 4 16 5.79086 16 8V8" 
          stroke="white" stroke-width="2.5" stroke-linecap="round" fill="none"/>
    
    <!-- 右侧链环 -->
    <path d="M24 16V16C24 18.2091 22.2091 20 20 20H16C13.7909 20 12 18.2091 12 16V16C12 13.7909 13.7909 12 16 12H20" 
          stroke="white" stroke-width="2.5" stroke-linecap="round" fill="none"/>
    
    <!-- 连接线 -->
    <line x1="12" y1="8" x2="20" y2="16" stroke="white" stroke-width="2.5" stroke-linecap="round"/>
  </g>
  
  <!-- 装饰性短线 -->
  <g opacity="0.8">
    <line x1="20" y1="45" x2="28" y2="45" stroke="white" stroke-width="2" stroke-linecap="round"/>
    <line x1="36" y1="45" x2="44" y2="45" stroke="white" stroke-width="2" stroke-linecap="round"/>
  </g>
  
  <!-- 渐变定义 -->
  <defs>
    <!-- 主渐变 -->
    <linearGradient id="gradient" x1="0%" y1="0%" x2="100%" y2="100%">
      <stop offset="0%" style="stop-color:#3B82F6;stop-opacity:1" />
      <stop offset="50%" style="stop-color:#1E40AF;stop-opacity:1" />
      <stop offset="100%" style="stop-color:#1E3A8A;stop-opacity:1" />
    </linearGradient>
    
    <!-- 边框渐变 -->
    <linearGradient id="borderGradient" x1="0%" y1="0%" x2="100%" y2="100%">
      <stop offset="0%" style="stop-color:#60A5FA;stop-opacity:1" />
      <stop offset="100%" style="stop-color:#3B82F6;stop-opacity:1" />
    </linearGradient>
  </defs>
  
  <!-- 微光效果 -->
  <circle cx="24" cy="24" r="3" fill="white" opacity="0.3">
    <animate attributeName="opacity" values="0.3;0.6;0.3" dur="2s" repeatCount="indefinite"/>
  </circle>
</svg>