<svg width="64" height="64" viewBox="0 0 64 64" fill="none" xmlns="http://www.w3.org/2000/svg">
  <!-- 背景圆形 -->
  <circle cx="32" cy="32" r="28" fill="url(#gradient)" stroke="url(#borderGradient)" stroke-width="2"/>
  
  <!-- 呼应渐变的 S 字母 -->
  <g transform="translate(24, 16)">
    <path d="M16 10C16 7.5 13.5 5 11 5H5C2.5 5 0 7.5 0 10C0 12.5 2.5 15 5 15H11C13.5 15 16 17.5 16 20C16 22.5 13.5 25 11 25H5C2.5 25 0 22.5 0 20" 
          stroke="url(#sGradient)" stroke-width="3.5" stroke-linecap="round" stroke-linejoin="round" fill="none"/>
  </g>
  
  <!-- 渐变透明度的箭头（从左下到右上） -->
  <g>
    <line x1="18" y1="46" x2="46" y2="18" stroke="url(#arrowGradient)" stroke-width="3" stroke-linecap="round"/>
    <!-- 箭头头部（向右上） -->
    <path d="M42 18 L46 18 L46 22" stroke="url(#arrowHeadGradient)" stroke-width="3" stroke-linecap="round" stroke-linejoin="round" fill="none"/>
  </g>
  
  <!-- 微光效果 - 右上角（与箭头方向呼应） -->
  <circle cx="48" cy="16" r="3" fill="white" opacity="0.3">
    <animate attributeName="opacity" values="0.3;0.6;0.3" dur="2s" repeatCount="indefinite"/>
  </circle>
  
  <!-- 渐变定义 -->
  <defs>
    <!-- 主渐变 -->
    <linearGradient id="gradient" x1="0%" y1="0%" x2="100%" y2="100%">
      <stop offset="0%" style="stop-color:#3B82F6;stop-opacity:1" />
      <stop offset="50%" style="stop-color:#1E40AF;stop-opacity:1" />
      <stop offset="100%" style="stop-color:#1E3A8A;stop-opacity:1" />
    </linearGradient>
    
    <!-- 边框渐变 -->
    <linearGradient id="borderGradient" x1="0%" y1="0%" x2="100%" y2="100%">
      <stop offset="0%" style="stop-color:#60A5FA;stop-opacity:1" />
      <stop offset="100%" style="stop-color:#3B82F6;stop-opacity:1" />
    </linearGradient>
    
    <!-- S 字母渐变（从左下到右上，与箭头同方向呼应） -->
    <linearGradient id="sGradient" x1="0%" y1="100%" x2="100%" y2="0%">
      <stop offset="0%" style="stop-color:white;stop-opacity:0.7" />
      <stop offset="50%" style="stop-color:white;stop-opacity:0.9" />
      <stop offset="100%" style="stop-color:white;stop-opacity:1" />
    </linearGradient>
    
    <!-- 箭头线条渐变（从左下到右上，透明度从低到高） -->
    <linearGradient id="arrowGradient" x1="0%" y1="100%" x2="100%" y2="0%">
      <stop offset="0%" style="stop-color:white;stop-opacity:0.3" />
      <stop offset="70%" style="stop-color:white;stop-opacity:0.8" />
      <stop offset="100%" style="stop-color:white;stop-opacity:1" />
    </linearGradient>
    
    <!-- 箭头头部渐变（高透明度） -->
    <linearGradient id="arrowHeadGradient" x1="0%" y1="100%" x2="100%" y2="0%">
      <stop offset="0%" style="stop-color:white;stop-opacity:0.9" />
      <stop offset="100%" style="stop-color:white;stop-opacity:1" />
    </linearGradient>
  </defs>
</svg>